<svg width="204" height="70" fill="none" xmlns="http://www.w3.org/2000/svg"><path d="M66.897 1.217c-1.062.355-1.858 1.015-1.858 1.471 0 .457-1.7 2.486-3.77 4.515-2.07 2.029-5.84 5.833-8.442 8.37-2.601 2.586-4.884 4.717-5.097 4.717-.212 0-.371-2.993-.371-6.594 0-5.326.159-6.595.743-6.645a21.853 21.853 0 001.274-.203c.319-.05 1.01-.152 1.593-.203 2.23-.102.903-.913-2.23-1.37-3.026-.405-10.99-.101-14.07.558-1.54.355-1.592 1.268-.159 1.268 1.912 0 2.283 2.13 1.859 10.653-.213 4.311-.425 8.42-.531 9.13-.053.71-.16 2.181-.213 3.297-.053 1.928-.53 2.536-5.893 7.913-5.362 5.428-9.557 10.094-17.627 19.732-6 7.101-8.017 8.928-10.14 9.333-1.062.203-1.965.61-1.965.964 0 .913 12.53 1.319 17.414.558 2.39-.355 2.814-.862 1.328-1.674-.69-.355-.744-.66-.319-1.166 1.54-1.877 10.353-12.276 13.167-15.573l3.186-3.754.16 1.979c.264 2.891-.32 5.174-1.487 5.782-.585.305-1.062.761-1.062 1.066 0 .659 9.928.203 10.83-.508.372-.304.85-.405 1.01-.203.212.153.69 0 1.114-.304.425-.355 1.912-.71 3.292-.862 3.345-.305 3.451-.508.69-1.218-3.61-.862-3.77-.963-3.45-1.876.105-.508.37-4.21.583-8.268l.372-7.356 10.725-10.398c5.946-5.732 11.946-11.616 13.379-13.138 1.433-1.522 3.77-3.601 5.15-4.717 2.548-1.877 2.655-1.928 7.168-1.928 4.566 0 4.566 0 3.557-1.014-.69-.609-2.336-1.167-4.779-1.471a416.258 416.258 0 01-6.37-1.015c-3.558-.66-6.531-.608-8.761.152zm68.224 18.312c-.265.05-1.911.507-3.557 1.015-1.646.456-3.292 1.166-3.61 1.521-1.646 1.877 2.76 4.413 5.15 2.993.637-.406 2.07-.71 3.132-.71 2.071 0 11.893-3.804 11.893-4.616 0-.406-11.734-.609-13.008-.203z" fill="#785117"/><path d="M62.384 30.942c-2.973.507-5.044 2.283-5.044 4.26 0 .66-.584 3.704-1.327 6.798s-1.327 6.29-1.327 7.101c0 1.37.212 1.573 2.336 2.08 1.699.406 2.814.406 3.822.05.797-.303 3.027-.557 4.938-.557 5.31 0 10.353-.507 11.043-1.065.372-.254.903-.355 1.168-.203.319.203.797-.102 1.115-.66.319-.608.319-1.116.053-1.319-1.008-.557-8.07-1.166-10.937-.913-3.185.305-3.504 0-2.23-2.384.478-.913 1.115-1.268 2.23-1.318 3.61-.102 10.937-1.624 12.849-2.689.85-.456.85-.507.106-.811-.478-.153-3.717-.457-7.168-.66l-6.318-.355.16-1.522c.106-.862.318-1.623.477-1.775.107-.152 1.965-.304 4.035-.406 5.469-.203 9.132-.76 9.08-1.37-.054-.304-1.381-.963-2.92-1.47-3.24-1.116-11.84-1.522-16.141-.812zm25.219-.152c-1.858.355-2.017.558-3.185 4.768-.638 2.08-1.54 5.225-2.124 7.05-.531 1.827-1.115 4.465-1.274 5.885-.425 3.145-.053 3.297 5.043 2.637 3.77-.456 4.089-.71 6.212-5.072 1.54-3.145 1.965-3.5 2.496-1.978.159.558 1.274 1.826 2.389 2.79 1.168 1.014 2.124 2.08 2.124 2.333 0 .964 2.76 1.623 4.035.964.69-.305 1.592-.457 2.123-.254.478.152 1.646.203 2.602 0 2.07-.355 2.708-1.42 5.84-10.45 2.867-8.115 2.814-8.318-3.239-8.217-2.336.051-4.353.102-4.566.153-.159.05-.849 1.521-1.486 3.347s-1.328 3.297-1.54 3.297c-.212 0-.796-.76-1.38-1.673-.531-.863-1.752-2.537-2.708-3.653l-1.699-2.029-4.194-.05c-2.283-.051-4.726 0-5.469.152zm36.9.66l-4.248.253-1.964 7.101c-1.965 7.051-2.443 10.602-1.54 11.109.531.304 1.646.355 5.097.102 1.168-.102 2.761-.203 3.504-.254 1.062-.05 1.593-.507 2.23-1.978 2.761-6.24 3.823-15.877 1.805-16.435-.318-.05-2.548-.05-4.884.101zm21.396-.153c-1.009.152-2.495 1.522-5.309 4.768-2.708 3.196-4.301 4.667-5.363 4.87-1.858.355-2.389 1.166-1.274 1.927.743.508.584.863-1.274 3.094-2.442 2.943-2.549 3.5-.584 3.044.796-.203 1.964-.406 2.601-.507 3.505-.609 4.46-1.015 5.734-2.638 1.328-1.674 1.593-1.775 4.142-1.623l2.707.152.638 2.942c.902 4.362 1.38 4.667 6.371 3.957 2.283-.305 4.247-.66 4.353-.761.106-.152-.053-.66-.371-1.218-.319-.608-.584-1.877-.584-2.84 0-1.522.212-1.826 1.221-1.928 5.203-.355 9.822-.203 17.361.406 9.928.862 15.875 2.232 16.3 3.804.159.61.743.964 1.539.964.637 0 1.381.203 1.54.507.212.305.637.305 1.221 0 .478-.253 2.283-.608 3.982-.76 1.646-.203 3.026-.508 3.026-.71 0-.71-2.389-2.537-4.247-3.247-5.575-2.181-20.441-3.906-33.502-3.906h-9.344l-.372-1.572c-.159-.863-.318-2.84-.318-4.363 0-4.362-.425-4.717-4.938-4.666-2.124.05-4.46.203-5.256.304zm.637 8.978c0 .153-.212.406-.531.558-.265.153-.531.051-.531-.203 0-.304.266-.558.531-.558.319 0 .531.102.531.203z" fill="#785117"/></svg>