<svg width="204" height="70" viewBox="0 0 204 70" fill="none" xmlns="http://www.w3.org/2000/svg">
<path d="M66.8969 1.2174C65.8351 1.57247 65.0387 2.2319 65.0387 2.68842C65.0387 3.14494 63.3397 5.17392 61.2691 7.20291C59.1985 9.2319 55.4289 13.0362 52.8273 15.5725C50.2258 18.1594 47.9428 20.2899 47.7304 20.2899C47.518 20.2899 47.3588 17.2971 47.3588 13.6957C47.3588 8.36958 47.518 7.10146 48.1021 7.05074C48.5268 7.00001 49.1108 6.89856 49.3763 6.84784C49.6949 6.79711 50.3851 6.69566 50.9691 6.64494C53.199 6.54349 51.8717 5.73189 48.7392 5.27537C45.7129 4.86958 37.749 5.17392 34.6696 5.83334C33.1299 6.18842 33.0768 7.10146 34.5103 7.10146C36.4217 7.10146 36.7933 9.2319 36.3686 17.7536C36.1562 22.0652 35.9438 26.1739 35.8376 26.8841C35.7845 27.5942 35.6784 29.0652 35.6253 30.1812C35.5722 32.1087 35.0943 32.7174 29.732 38.0942C24.3696 43.5218 20.1753 48.1884 12.1052 57.8261C6.10567 64.9275 4.08814 66.7536 1.96443 67.1594C0.902577 67.3623 0 67.7681 0 68.1232C0 69.0362 12.5299 69.442 17.4144 68.6812C19.8036 68.3261 20.2284 67.8189 18.7418 67.0073C18.0515 66.6522 17.9985 66.3478 18.4232 65.8406C19.9629 63.9638 28.7763 53.5652 31.5902 50.2681L34.7758 46.5145L34.9351 48.4928C35.2005 51.3841 34.6165 53.6667 33.4485 54.2754C32.8644 54.5797 32.3866 55.0362 32.3866 55.3406C32.3866 56 42.315 55.5435 43.2175 54.8333C43.5892 54.529 44.067 54.4275 44.2263 54.6304C44.4387 54.7826 44.9165 54.6304 45.3412 54.3261C45.766 53.971 47.2526 53.616 48.633 53.4638C51.9778 53.1594 52.084 52.9565 49.3232 52.2464C45.7129 51.3841 45.5536 51.2826 45.8722 50.3696C45.9784 49.8623 46.2438 46.1594 46.4562 42.1015L46.8278 34.7464L57.5526 24.3478C63.499 18.616 69.4985 12.7319 70.932 11.2102C72.3655 9.68842 74.7016 7.6087 76.082 6.49276C78.6304 4.61595 78.7366 4.56522 83.2495 4.56522C87.8155 4.56522 87.8155 4.56522 86.8067 3.55074C86.1165 2.94204 84.4706 2.38406 82.0284 2.07972C80.0108 1.77537 77.1438 1.31885 75.6572 1.06522C72.1 0.405807 69.1268 0.456528 66.8969 1.2174Z" fill="#373737"/>
<path d="M135.121 19.529C134.856 19.5797 133.21 20.0362 131.564 20.5435C129.918 21 128.272 21.7101 127.954 22.0652C126.308 23.942 130.714 26.4783 133.104 25.058C133.741 24.6522 135.174 24.3478 136.236 24.3478C138.307 24.3478 148.129 20.5435 148.129 19.7319C148.129 19.3261 136.395 19.1232 135.121 19.529Z" fill="#373737"/>
<path d="M62.384 30.942C59.4108 31.4493 57.3402 33.2246 57.3402 35.2029C57.3402 35.8623 56.7562 38.9058 56.0129 42C55.2696 45.0942 54.6855 48.2898 54.6855 49.1014C54.6855 50.471 54.8979 50.6739 57.0216 51.1812C58.7206 51.5869 59.8355 51.5869 60.8443 51.2319C61.6407 50.9275 63.8706 50.6739 65.7819 50.6739C71.0912 50.6739 76.135 50.1667 76.8252 49.6087C77.1969 49.3551 77.7278 49.2536 77.9933 49.4058C78.3118 49.6087 78.7897 49.3043 79.1082 48.7464C79.4268 48.1377 79.4268 47.6304 79.1613 47.4275C78.1526 46.8696 71.0912 46.2609 68.2242 46.5145C65.0386 46.8188 64.7201 46.5145 65.9943 44.1304C66.4721 43.2174 67.1093 42.8623 68.2242 42.8116C71.8345 42.7101 79.1613 41.1884 81.0727 40.1232C81.9221 39.6667 81.9221 39.6159 81.1788 39.3116C80.701 39.1594 77.4624 38.8551 74.0113 38.6522L67.6933 38.2971L67.8526 36.7754C67.9587 35.913 68.1711 35.1522 68.3304 35C68.4366 34.8478 70.2948 34.6956 72.3654 34.5942C77.834 34.3913 81.4974 33.8333 81.4443 33.2246C81.3912 32.9203 80.0639 32.2609 78.5242 31.7536C75.2855 30.6377 66.6845 30.2319 62.384 30.942Z" fill="#373737"/>
<path d="M87.603 30.7899C85.7447 31.1449 85.5855 31.3478 84.4174 35.558C83.7803 37.6377 82.8777 40.7826 82.2937 42.6087C81.7628 44.4348 81.1788 47.0725 81.0195 48.4928C80.5947 51.6377 80.9664 51.7899 86.0633 51.1304C89.8329 50.6739 90.1514 50.4203 92.2751 46.058C93.8148 42.9131 94.2396 42.558 94.7705 44.0797C94.9298 44.6377 96.0447 45.9058 97.1597 46.8696C98.3277 47.8841 99.2834 48.9493 99.2834 49.2029C99.2834 50.1667 102.044 50.8261 103.318 50.1667C104.009 49.8623 104.911 49.7102 105.442 49.9131C105.92 50.0652 107.088 50.116 108.044 49.9131C110.114 49.558 110.751 48.4928 113.884 39.4638C116.751 31.3478 116.698 31.1449 110.645 31.2464C108.309 31.2971 106.292 31.3478 106.079 31.3986C105.92 31.4493 105.23 32.9203 104.593 34.7464C103.956 36.5725 103.265 38.0435 103.053 38.0435C102.841 38.0435 102.257 37.2826 101.673 36.3696C101.142 35.5073 99.9205 33.8333 98.9648 32.7174L97.2659 30.6884L93.0715 30.6377C90.7885 30.587 88.3463 30.6377 87.603 30.7899Z" fill="#373737"/>
<path d="M124.503 31.4493L120.255 31.7029L118.291 38.8043C116.326 45.8551 115.848 49.4058 116.751 49.913C117.282 50.2174 118.397 50.2681 121.848 50.0145C123.016 49.913 124.609 49.8116 125.352 49.7609C126.414 49.7101 126.945 49.2536 127.582 47.7826C130.343 41.5435 131.405 31.9058 129.387 31.3478C129.069 31.2971 126.839 31.2971 124.503 31.4493Z" fill="#373737"/>
<path d="M145.899 31.2971C144.89 31.4493 143.404 32.8188 140.59 36.0652C137.882 39.2609 136.289 40.7319 135.227 40.9348C133.369 41.2899 132.838 42.1014 133.953 42.8623C134.696 43.3696 134.537 43.7246 132.679 45.9565C130.237 48.8986 130.13 49.4565 132.095 49C132.891 48.7971 134.059 48.5942 134.696 48.4928C138.2 47.8841 139.156 47.4783 140.43 45.8551C141.758 44.1812 142.023 44.0797 144.572 44.2319L147.279 44.3841L147.916 47.3261C148.819 51.6884 149.297 51.9928 154.288 51.2826C156.571 50.9783 158.535 50.6232 158.641 50.5217C158.747 50.3696 158.588 49.8623 158.27 49.3043C157.951 48.6957 157.686 47.4275 157.686 46.4638C157.686 44.942 157.898 44.6377 158.907 44.5362C164.11 44.1812 168.729 44.3333 176.268 44.942C186.196 45.8043 192.143 47.1739 192.567 48.7464C192.727 49.3551 193.311 49.7101 194.107 49.7101C194.744 49.7101 195.488 49.913 195.647 50.2174C195.859 50.5217 196.284 50.5217 196.868 50.2174C197.346 49.9638 199.151 49.6087 200.85 49.4565C202.496 49.2536 203.876 48.9493 203.876 48.7464C203.876 48.0362 201.487 46.2101 199.629 45.5C194.054 43.3188 179.188 41.5942 166.127 41.5942H156.783L156.411 40.0217C156.252 39.1594 156.093 37.1812 156.093 35.6594C156.093 31.2971 155.668 30.942 151.155 30.9928C149.031 31.0435 146.695 31.1957 145.899 31.2971ZM146.536 40.2754C146.536 40.4275 146.324 40.6812 146.005 40.8333C145.74 40.9855 145.474 40.8841 145.474 40.6304C145.474 40.3261 145.74 40.0725 146.005 40.0725C146.324 40.0725 146.536 40.1739 146.536 40.2754Z" fill="#373737"/>
</svg>
